<?xml version="1.0" encoding="utf-8"?>
<!-- Generator: Adobe Illustrator 16.0.0, SVG Export Plug-In . SVG Version: 6.00 Build 0)  -->
<!DOCTYPE svg PUBLIC "-//W3C//DTD SVG 1.0//EN" "http://www.w3.org/TR/2001/REC-SVG-20010904/DTD/svg10.dtd">
<svg version="1.0" id="Camada_1" xmlns="http://www.w3.org/2000/svg" xmlns:xlink="http://www.w3.org/1999/xlink" x="0px" y="0px"
	 width="180px" height="60px" viewBox="0 0 180 60" enable-background="new 0 0 180 60" xml:space="preserve">
<g>
	<g>
		<g>
			<path fill="#FFFFFF" d="M23.959,42.961c-0.055-0.409-0.109-0.845-0.164-1.309h-0.082c-0.409,0.98-1.056,1.717-1.941,2.207
				c-0.886,0.49-1.901,0.736-3.045,0.736c-1.118,0-2.064-0.145-2.841-0.431c-0.776-0.285-1.41-0.715-1.9-1.287
				c-0.491-0.571-0.845-1.253-1.063-2.044c-0.219-0.79-0.327-1.662-0.327-2.616c0-1.034,0.102-1.935,0.307-2.698
				c0.205-0.763,0.538-1.422,1.001-1.981c0.463-0.56,1.089-1.035,1.88-1.431c0.79-0.396,1.771-0.729,2.943-1.002l2.902-0.694
				c0.79-0.19,1.349-0.47,1.676-0.838c0.327-0.368,0.491-0.893,0.491-1.574c0-1.362-0.627-2.044-1.88-2.044
				c-0.709,0-1.227,0.198-1.554,0.593c-0.327,0.396-0.504,1.179-0.531,2.351h-6.377c0-1.607,0.286-2.895,0.858-3.863
				c0.572-0.967,1.281-1.716,2.126-2.248c0.844-0.531,1.757-0.885,2.739-1.063c0.981-0.177,1.894-0.265,2.739-0.265
				c1.281,0,2.459,0.102,3.536,0.306c1.076,0.205,2.003,0.572,2.779,1.104c0.777,0.531,1.376,1.253,1.799,2.166
				c0.422,0.914,0.634,2.092,0.634,3.536v10.792c0,1.036,0.041,1.948,0.123,2.739c0.082,0.789,0.272,1.471,0.572,2.043h-7.113
				C24.109,43.766,24.014,43.369,23.959,42.961z M23.265,38.873c0.354-0.6,0.531-1.514,0.531-2.739v-2.657h-0.082
				c-0.218,0.301-0.552,0.484-1.001,0.553c-0.449,0.07-0.947,0.226-1.492,0.471c-0.572,0.271-0.968,0.634-1.186,1.083
				c-0.218,0.449-0.327,1.042-0.327,1.778c0,0.734,0.164,1.322,0.491,1.758c0.327,0.436,0.763,0.654,1.308,0.654
				C22.324,39.771,22.91,39.473,23.265,38.873z"/>
			<path fill="#FFFFFF" d="M41.414,14.959v29.188h-7.358V14.959H41.414z"/>
			<path fill="#FFFFFF" d="M43.008,26.978v-4.947h2.535v-1.594c0-1.118,0.116-2.058,0.347-2.821c0.231-0.763,0.613-1.383,1.145-1.86
				c0.531-0.476,1.232-0.824,2.105-1.042c0.872-0.218,1.948-0.327,3.229-0.327c0.545,0,1.125,0.021,1.737,0.061
				c0.613,0.041,1.206,0.103,1.778,0.184v4.619c-0.19-0.054-0.375-0.088-0.551-0.102c-0.178-0.014-0.403-0.02-0.675-0.02
				c-0.463,0-0.872,0.122-1.226,0.367c-0.355,0.246-0.531,0.641-0.531,1.186v1.349h2.983v4.947h-2.983v17.168h-7.358V26.978H43.008z
				"/>
			<path fill="#FFFFFF" d="M67.821,42.961c-0.055-0.409-0.109-0.845-0.164-1.309h-0.082c-0.409,0.98-1.057,1.717-1.941,2.207
				c-0.886,0.49-1.901,0.736-3.046,0.736c-1.118,0-2.064-0.145-2.841-0.431c-0.777-0.285-1.41-0.715-1.901-1.287
				c-0.49-0.571-0.845-1.253-1.062-2.044c-0.219-0.79-0.328-1.662-0.328-2.616c0-1.034,0.103-1.935,0.307-2.698
				c0.204-0.763,0.538-1.422,1.001-1.981c0.463-0.56,1.09-1.035,1.88-1.431s1.771-0.729,2.943-1.002l2.902-0.694
				c0.791-0.19,1.349-0.47,1.676-0.838s0.491-0.893,0.491-1.574c0-1.362-0.627-2.044-1.88-2.044c-0.709,0-1.227,0.198-1.554,0.593
				c-0.327,0.396-0.504,1.179-0.531,2.351h-6.377c0-1.607,0.286-2.895,0.858-3.863c0.572-0.967,1.281-1.716,2.125-2.248
				c0.845-0.531,1.758-0.885,2.739-1.063c0.981-0.177,1.894-0.265,2.739-0.265c1.281,0,2.459,0.102,3.536,0.306
				c1.076,0.205,2.002,0.572,2.779,1.104c0.777,0.531,1.376,1.253,1.799,2.166c0.422,0.914,0.633,2.092,0.633,3.536v10.792
				c0,1.036,0.041,1.948,0.123,2.739c0.082,0.789,0.271,1.471,0.572,2.043h-7.113C67.97,43.766,67.875,43.369,67.821,42.961z
				 M67.126,38.873c0.354-0.6,0.531-1.514,0.531-2.739v-2.657h-0.082c-0.218,0.301-0.552,0.484-1.001,0.553
				c-0.449,0.07-0.947,0.226-1.492,0.471c-0.573,0.271-0.968,0.634-1.186,1.083c-0.218,0.449-0.327,1.042-0.327,1.778
				c0,0.734,0.164,1.322,0.491,1.758s0.762,0.654,1.308,0.654C66.186,39.771,66.771,39.473,67.126,38.873z"/>
			<path fill="#FFFFFF" d="M85.154,14.959v9.524h0.081c0.627-1.171,1.411-1.968,2.351-2.391c0.94-0.422,1.86-0.633,2.76-0.633
				c0.761,0,1.492,0.096,2.186,0.286c0.694,0.191,1.309,0.519,1.84,0.981c0.53,0.463,0.953,1.083,1.269,1.86
				c0.312,0.776,0.471,1.737,0.471,2.882v16.679H88.75V29.553c0-0.926-0.137-1.595-0.408-2.003
				c-0.272-0.409-0.736-0.613-1.391-0.613c-0.653,0-1.117,0.204-1.39,0.613c-0.272,0.408-0.408,1.077-0.408,2.003v14.594h-7.358
				V14.959H85.154z"/>
			<path fill="#FFFFFF" d="M105.756,37.236c0,1.201,0.205,1.998,0.613,2.393c0.408,0.396,0.871,0.594,1.389,0.594
				c0.654,0,1.166-0.267,1.533-0.798c0.369-0.532,0.553-1.547,0.553-3.046h6.623c-0.057,2.727-0.75,4.775-2.086,6.152
				s-3.529,2.064-6.58,2.064c-1.773,0-3.258-0.199-4.457-0.594s-2.166-1.049-2.902-1.962c-0.735-0.913-1.262-2.104-1.573-3.577
				c-0.312-1.472-0.47-3.256-0.47-5.354c0-2.127,0.177-3.925,0.531-5.396c0.354-1.472,0.912-2.67,1.676-3.597
				c0.763-0.926,1.736-1.601,2.922-2.023c1.187-0.422,2.609-0.633,4.273-0.633c1.471,0,2.758,0.177,3.861,0.531
				s2.031,0.947,2.779,1.778c0.75,0.832,1.309,1.921,1.678,3.27c0.367,1.35,0.551,3.031,0.551,5.049v2.248h-10.914V37.236z
				 M109.373,26.773c-0.285-0.545-0.824-0.818-1.615-0.818c-0.762,0-1.287,0.273-1.572,0.818c-0.287,0.545-0.43,1.404-0.43,2.576
				v0.98h4.047v-0.98C109.803,28.177,109.66,27.318,109.373,26.773z"/>
			<path fill="#FFFFFF" d="M126.195,14.959v29.188h-7.359V14.959H126.195z"/>
			<path fill="#FFFFFF" d="M136.74,14.959v5.478h-7.357v-5.478H136.74z M136.74,22.031v22.115h-7.357V22.031H136.74z"/>
		</g>
	</g>
	<g>
		
			<linearGradient id="SVGID_1_" gradientUnits="userSpaceOnUse" x1="481.7539" y1="-232.0957" x2="487.9328" y2="-238.2746" gradientTransform="matrix(1 0 0 -1 -331 -206.5)">
			<stop  offset="0" style="stop-color:#1B5584"/>
			<stop  offset="1" style="stop-color:#42B283"/>
		</linearGradient>
		<path fill="url(#SVGID_1_)" d="M165.916,10.433c-0.059,6.652-3.02,12.054-7.256,16.943c-3.328,3.842-7.291,7.038-10.75,10.743
			c-2.283,2.445-4.398,5.014-5.758,8.115c-0.064,0.147-0.152,0.283-0.381,0.701c-0.037-1.754,0.205-3.179,0.508-4.58
			c0.922-4.267,3.111-7.853,5.943-11.121c3.375-3.896,7.444-7.069,11.021-10.754C162.096,17.544,164.564,14.384,165.916,10.433z"/>
		
			<linearGradient id="SVGID_2_" gradientUnits="userSpaceOnUse" x1="471.8008" y1="-215.7412" x2="485.8535" y2="-229.7941" gradientTransform="matrix(1 0 0 -1 -331 -206.5)">
			<stop  offset="0" style="stop-color:#1B5584"/>
			<stop  offset="1" style="stop-color:#42B283"/>
		</linearGradient>
		<path fill="url(#SVGID_2_)" d="M141.035,9.007c0.504,0.939,0.748,1.8,1.26,2.534c1.076,1.543,2.088,1.942,3.865,1.313
			c1.408-0.5,2.771-1.131,4.154-1.702c0.408-0.169,0.812-0.348,1.229-0.495c0.34-0.121,0.688-0.141,0.869,0.265
			c0.229,0.515-0.229,0.562-0.515,0.675c-1.328,0.523-2.674,1.007-3.998,1.539c-0.823,0.33-1.614,0.745-2.256,1.371
			c-0.373,0.364-0.635,0.822-0.334,1.375c0.285,0.527,0.744,0.35,1.174,0.27c2.039-0.38,4.078-0.761,6.117-1.143
			c0.232-0.044,0.467-0.094,0.701-0.135c0.354-0.062,0.617,0.042,0.67,0.429c0.051,0.363-0.213,0.452-0.498,0.515
			c-1.262,0.277-2.524,0.546-3.783,0.841c-0.491,0.116-1.018,0.175-1.432,0.508c-0.395,0.318-0.865,0.609-0.57,1.251
			c0.273,0.591,0.601,1.083,1.381,0.917c1.443-0.308,2.927,0.017,4.373-0.258c0.357-0.068,0.604,0.08,0.646,0.466
			c0.043,0.423-0.233,0.518-0.573,0.534c-0.576,0.029-1.152,0.011-1.72,0.188c-0.762,0.24-0.969,0.708-0.631,1.405
			c0.394,0.807,0.953,1.494,1.668,2.034c0.651,0.493,0.763,0.92,0.08,1.522c-0.894,0.787-1.711,1.657-2.543,2.509
			c-0.338,0.347-0.617,0.479-1.013,0.064c-4.711-4.935-8.02-10.544-8.463-17.537c-0.018-0.271-0.008-0.544,0.004-0.816
			C140.904,9.355,140.955,9.264,141.035,9.007z"/>
		
			<linearGradient id="SVGID_3_" gradientUnits="userSpaceOnUse" x1="484.127" y1="-240.7915" x2="498.243" y2="-254.9076" gradientTransform="matrix(1 0 0 -1 -331 -206.5)">
			<stop  offset="0" style="stop-color:#1B5584"/>
			<stop  offset="1" style="stop-color:#42B283"/>
		</linearGradient>
		<path fill="url(#SVGID_3_)" d="M166.994,48.656c-0.482-0.941-0.844-1.754-1.299-2.508c-0.938-1.562-2.064-1.986-3.801-1.476
			c-1.674,0.49-3.181,1.394-4.812,1.99c-0.224,0.08-0.438,0.183-0.662,0.267c-0.315,0.116-0.614,0.143-0.769-0.238
			c-0.161-0.41,0.14-0.549,0.435-0.662c1.144-0.441,2.295-0.863,3.435-1.314c0.951-0.377,1.873-0.822,2.662-1.492
			c0.44-0.375,0.748-0.836,0.469-1.432c-0.295-0.633-0.84-0.42-1.338-0.326c-2.006,0.381-4.01,0.766-6.019,1.135
			c-0.312,0.058-0.733,0.25-0.856-0.235c-0.129-0.509,0.27-0.619,0.664-0.693c1.371-0.26,2.75-0.481,4.063-0.976
			c0.629-0.233,1.265-0.493,1.123-1.338c-0.146-0.875-0.75-1.129-1.574-1.071c-1.256,0.086-2.514,0.151-3.771,0.194
			c-0.342,0.013-0.853,0.125-0.879-0.424c-0.029-0.562,0.504-0.44,0.838-0.502c2.492-0.455,2.647-0.871,1.039-2.809
			c-0.195-0.236-0.371-0.49-0.592-0.701c-1.004-0.955-1.009-0.951,0.006-1.965c0.723-0.723,1.461-1.43,2.158-2.176
			c0.43-0.46,0.764-0.433,1.184,0.009c4.543,4.753,7.775,10.144,8.242,16.886C166.98,47.367,167.174,47.932,166.994,48.656z"/>
		
			<linearGradient id="SVGID_4_" gradientUnits="userSpaceOnUse" x1="487.1357" y1="-213.75" x2="494.444" y2="-221.0583" gradientTransform="matrix(1 0 0 -1 -331 -206.5)">
			<stop  offset="0" style="stop-color:#1B5584"/>
			<stop  offset="1" style="stop-color:#42B283"/>
		</linearGradient>
		<path fill="url(#SVGID_4_)" d="M163.387,0c2.277,4.358,2.623,8.629,0.287,12.896c-1.867,3.41-4.635,6.105-7.387,8.794
			c-0.035,0.035-0.123,0.021-0.184,0.029c-0.019-0.03-0.054-0.061-0.049-0.084c0.102-0.589,0.989-0.92,0.774-1.46
			c-0.246-0.614-1.039-0.157-1.567-0.315c-0.216-0.064-0.373-0.158-0.396-0.396c-0.023-0.226,0.064-0.415,0.268-0.502
			c0.215-0.092,0.449-0.151,0.68-0.195c2.109-0.401,3.492-1.724,4.5-3.525c0.099-0.173,0.283-0.353,0.125-0.546
			c-0.145-0.174-0.385-0.098-0.58-0.061c-1.303,0.243-2.602,0.512-3.907,0.73c-0.316,0.053-0.806,0.292-0.902-0.306
			c-0.08-0.497,0.336-0.631,0.697-0.723c1.092-0.277,2.131-0.692,3.172-1.116c2.248-0.916,3.627-2.565,4.254-4.877
			c0.065-0.247,0.283-0.524,0.039-0.765c-0.246-0.242-0.521-0.034-0.76,0.054c-1.979,0.729-3.953,1.47-5.929,2.208
			c-0.19,0.072-0.375,0.193-0.569,0.215c-0.377,0.042-0.873,0.612-1.109-0.069c-0.215-0.616,0.378-0.76,0.814-0.951
			c0.997-0.434,2.018-0.828,2.971-1.345c1.162-0.63,2.299-1.317,3.16-2.373c1.019-1.244,1.489-2.65,1.424-4.251
			C163.197,0.771,163.109,0.46,163.387,0z"/>
		
			<linearGradient id="SVGID_5_" gradientUnits="userSpaceOnUse" x1="475.6387" y1="-249.4946" x2="482.9082" y2="-256.7642" gradientTransform="matrix(1 0 0 -1 -331 -206.5)">
			<stop  offset="0" style="stop-color:#1B5584"/>
			<stop  offset="1" style="stop-color:#42B283"/>
		</linearGradient>
		<path fill="url(#SVGID_5_)" d="M144.645,57.527c-2.106-3.896-2.676-7.9-0.709-12.062c1.092-2.309,2.678-4.266,4.39-6.119
			c1.146-1.24,2.379-2.396,3.731-3.461c-0.266,0.367-0.537,0.73-0.791,1.105c-0.131,0.189-0.33,0.402-0.139,0.641
			c0.141,0.174,0.373,0.117,0.578,0.102c0.41-0.034,0.963-0.315,1.047,0.384c0.07,0.582-0.436,0.678-0.879,0.788
			c-2.184,0.546-3.561,1.97-4.473,4.076c1.354,0.021,2.522-0.371,3.723-0.541c0.338-0.047,0.672-0.11,1.008-0.16
			c0.273-0.04,0.57-0.102,0.635,0.296c0.053,0.321-0.121,0.521-0.412,0.612c-0.811,0.263-1.631,0.494-2.434,0.773
			c-2.615,0.912-4.432,2.609-5.18,5.336c-0.08,0.283-0.287,0.627-0.016,0.857c0.223,0.188,0.521-0.035,0.768-0.127
			c2.328-0.871,4.65-1.76,6.979-2.627c0.348-0.129,0.822-0.486,1.045,0.096c0.215,0.557-0.336,0.654-0.695,0.805
			c-2.073,0.869-4.155,1.719-5.87,3.242C145.154,53.135,144.467,55.137,144.645,57.527z"/>
	</g>
</g>
</svg>
